# AST/ASF file generated using VICON BodyLanguage
# -----------------------------------------------
:version 1.10
:name VICON
:units
  mass 1.0
  length 0.45
  angle deg
:documentation
   .ast/.asf automatically generated from VICON data using
   VICON BodyBuilder and BodyLanguage model FoxedUp or BRILLIANT.MOD
:root
   order TX TY TZ RX RY RZ
   axis XYZ
   position 0 0 0  
   orientation 0 0 0 
:bonedata
  begin
     id 1 
     name lhipjoint
     direction 0.602128 -0.715006 0.355257 
     length 2.21237 
     axis 0 0 0  XYZ
  end
  begin
     id 2 
     name lfemur
     direction 0.34202 -0.939693 0  
     length 6.71649  
     axis 0 0 20  XYZ
    dof rx ry rz
    limits (-160.0 20.0)
           (-70.0 70.0)
           (-60.0 70.0)
  end
  begin
     id 3 
     name ltibia
     direction 0.34202 -0.939693 0   
     length 6.97123   
     axis 0 0 20   XYZ
    dof rx
    limits (-10.0 170.0)
  end
  begin
     id 4 
     name lfoot
     direction 0.0655697 -0.180151 0.981451   
     length 1.80924   
     axis -90 7.62852e-016 20   XYZ
    dof rx rz
    limits (-45.0 90.0)
           (-70.0 20.0)
  end
  begin
     id 5 
     name ltoes
     direction 1.53545e-011 -4.21827e-011 1   
     length 0.916331   
     axis -90 7.62852e-016 20   XYZ
    dof rx
    limits (-90.0 20.0)
  end
  begin
     id 6 
     name rhipjoint
     direction -0.625414 -0.698792 0.347201   
     length 2.2637  
     axis 0 0 0  XYZ 
  end
  begin
     id 7 
     name rfemur
     direction -0.34202 -0.939693 0   
     length 7.07595   
     axis 0 0 -20   XYZ
    dof rx ry rz
    limits (-160.0 20.0)
           (-70.0 70.0)
           (-70.0 60.0)
  end
  begin
     id 8 
     name rtibia
     direction -0.34202 -0.939693 0   
     length 7.22924   
     axis 0 0 -20   XYZ
    dof rx
    limits (-10.0 170.0)
 end
 begin
     id 9 
     name rfoot
     direction -0.0766747 -0.210662 0.974547   
     length 1.98482  
     axis -90 -7.62852e-016 -20   XYZ
    dof rx rz
    limits (-45.0 90.0)
           (-20.0 70.0)
  end
  begin
     id 10 
     name rtoes
     direction -1.53532e-011 -4.21867e-011 1   
     length 0.999842   
     axis -90 -7.62852e-016 -20   XYZ
    dof rx
    limits (-90.0 20.0)
  end
  begin
     id 11 
     name lowerback
     direction -0.0224668 0.997354 -0.0691422   
     length 2.09945   
     axis 0 0 0   XYZ
    dof rx ry rz
    limits (-20.0 45.0)
           (-30.0 30.0)
           (-30.0 30.0)
  end
  begin
     id 12 
     name upperback
     direction 0.0134698 0.998451 -0.0539888   
     length 2.09758   
     axis 0 0 0   XYZ
    dof rx ry rz
    limits (-20.0 45.0)
           (-30.0 30.0)
           (-30.0 30.0)
  end
  begin
     id 13 
     name thorax
     direction 0.0241905 0.99948 -0.0213333   
     length 2.10428   
     axis 0 0 0   XYZ
    dof rx ry rz
    limits (-20.0 45.0)
           (-30.0 30.0)
           (-30.0 30.0)
  end
  begin
     id 14 
     name lowerneck
     direction -0.00866847 0.995978 0.0891737   
     length 1.3959   
     axis 0 0 0   XYZ
    dof rx ry rz
    limits (-20.0 45.0)
           (-30.0 30.0)
           (-30.0 30.0)
  end
  begin
     id 15 
     name upperneck
     direction 0.0680679 0.992203 0.104404   
     length 1.39452   
     axis 0 0 0   XYZ
    dof rx ry rz
    limits (-20.0 45.0)
           (-30.0 30.0)
           (-30.0 30.0)
  end
  begin
     id 16
     name head
     direction 0.0242216 0.999358 0.0264054  
     length 1.40433  
     axis 0 0 0   XYZ
    dof rx ry rz
    limits (-20.0 45.0)
           (-30.0 30.0)
           (-30.0 30.0)
  end
  begin
     id 17 
     name lclavicle
     direction 0.929368 0.362991 -0.0671771  
     length 3.04887  
     axis 0 0 0   XYZ
    dof ry rz
    limits (-20.0 10.0)
           (0.0 20.0)
  end
  begin
     id 18 
     name lhumerus
     direction 1 -4.48967e-011 -7.13741e-028   
     length 4.77195   
     axis -180 -30 -90   XYZ
    dof rx ry rz
    limits (-60.0 90.0)
           (-90.0 90.0)
           (-90.0 90.0)
  end
  begin
     id 19
     name lradius
     direction 1 -4.48977e-011 3.60404e-027   
     length 2.98444   
     axis -180 -30 -90   XYZ
    dof rx
    limits (-10.0 170.0)
  end
  begin
     id 20
     name lwrist
     direction 1 -4.48997e-011 7.54877e-027   
     length 1.49222   
     axis -7.18178e-015 90 90   XYZ
    dof ry
    limits (-180.0 0.0)
 end
  begin
     id 21 
     name lhand
     direction 1 -4.489e-011 1.51105e-026   
     length 0.992285   
     axis -9.63605e-015 90 90   XYZ
    dof rx rz
    limits (-90.0 90.0)
           (-45.0 45.0)
  end
  begin
     id 22 
     name lfingers
     direction 1 -4.48998e-011 3.01948e-026   
     length 0.800006   
     axis -1.92718e-014 90 90   XYZ
    dof rx
    limits (0.0 90.0)
  end
  begin
     id 23
     name lthumb
     direction 0.707107 -6.34881e-011 0.707107   
     length 1.14865   
     axis -90 45 -3.53137e-014   XYZ
    dof rx rz
    limits (-45.0 45.0)
           (-45.0 45.0)
  end
  begin
     id 24 
     name rclavicle
     direction -0.945672 0.324529 0.0196374   
     length 3.4236  
     axis 0 0 0   XYZ 
    dof ry rz
    limits (-10.0 20.0)
           (-20.0 0.0)
  end
  begin
     id 25 
     name rhumerus
     direction -1 -4.4896e-011 1.02757e-029  
     length 4.62052   
     axis -180 30 90   XYZ
    dof rx ry rz
    limits (-90.0 60.0)
           (-90.0 90.0)
           (-90.0 90.0)
  end
  begin
     id 26 
     name rradius
     direction -1 -4.48982e-011 3.85962e-027   
     length 2.95332   
     axis -180 30 90   XYZ
    dof rx
    limits (-10.0 170.0)
  end
  begin
     id 27 
     name rwrist
     direction -1 -4.48961e-011 7.55118e-027   
     length 1.47666   
     axis -7.18178e-015 -90 -90   XYZ
    dof ry
    limits (-180.0 0.0)
  end
  begin
     id 28
     name rhand
     direction -1 -4.48984e-011 1.50994e-026   
     length 0.990956   
     axis -9.63605e-015 -90 -90   XYZ
    dof rx rz
    limits (-90.0 90.0)
           (-45.0 45.0)
  end
  begin
     id 29
     name rfingers
     direction -1 -4.4892e-011 3.02158e-026   
     length 0.798934   
     axis -1.92718e-014 -90 -90   XYZ
    dof rx
    limits (0.0 90.0)
  end
  begin
     id 30
     name rthumb
     direction -0.707107 -6.34916e-011 0.707107   
     length 1.14711   
     axis -90 -45 3.53137e-014   XYZ
    dof rx rz
    limits (-45.0 45.0)
           (-45.0 45.0)
  end
:hierarchy
  begin
    root lhipjoint rhipjoint lowerback
    lhipjoint lfemur
    lfemur ltibia
    ltibia lfoot
    lfoot ltoes
    rhipjoint rfemur
    rfemur rtibia
    rtibia rfoot
    rfoot rtoes
    lowerback upperback
    upperback thorax
    thorax lowerneck lclavicle rclavicle
    lowerneck upperneck
    upperneck head
    lclavicle lhumerus
    lhumerus lradius
    lradius lwrist
    lwrist lhand lthumb
    lhand lfingers
    rclavicle rhumerus
    rhumerus rradius
    rradius rwrist
    rwrist rhand rthumb
    rhand rfingers
  end

#!OML:ASF H:\ManfredObstacles\Project 1\Capture day 1\Session 1\Male.ASF
:FULLY-SPECIFIED
:DEGREES
187
root -10.3594 16.3048 29.065 -171.74 -1.881 -182.692
lowerback -7.35685 -1.72121 -5.78092
upperback 2.05056 -1.72566 -1.14425
thorax 6.42723 -1.07513 1.82009
lowerneck 0.176693 -2.23925 -4.98332
upperneck -6.5811 -2.30805 9.17515
head -1.9739 -1.10882 3.9538
rclavicle 1.41137e-014 -3.49861e-014
rhumerus -35.7984 -19.3717 -77.8981
rradius 29.0751
rwrist 29.0552
rhand 1.14984 -5.32368
rfingers 7.12502
rthumb 26.6913 -33.4615
lclavicle 1.41137e-014 -3.49861e-014
lhumerus -26.9188 13.8133 79.5039
lradius 20.268
lwrist -30.2832
lhand -6.60841 11.2748
lfingers 7.12502
lthumb 19.2474 40.3423
rfemur -30.7132 -5.41887 18.0433
rtibia 70.0422
rfoot -8.04312 2.90851
rtoes 14.3749
lfemur -16.0817 2.783 -25.4921
ltibia 17.4105
lfoot 0.818916 -12.6823
ltoes 27.4671
188
root -10.3791 16.2858 28.8958 -171.649 -2.28509 -182.726
lowerback -7.18707 -1.89122 -5.73478
upperback 2.08272 -1.97015 -1.05131
thorax 6.38486 -1.19361 1.86354
lowerneck 0.228284 -2.23855 -5.02463
upperneck -6.66176 -2.30494 9.16772
head -2.01006 -1.108 3.9622
rclavicle 7.30534e-015 4.77083e-014
rhumerus -36.0081 -19.3861 -77.4893
rradius 28.9362
rwrist 29.344
rhand 1.2008 -5.30321
rfingers 7.12502
rthumb 26.74 -33.4336
lclavicle 7.30534e-015 4.77083e-014
lhumerus -26.3195 13.0061 80.2012
lradius 20.643
lwrist -29.6646
lhand -6.65489 11.0848
lfingers 7.12502
lthumb 19.2027 40.1568
rfemur -32.6991 -5.02955 18.0541
rtibia 68.8503
rfoot -9.7336 2.10724
rtoes 12.823
lfemur -15.9699 2.48408 -25.5316
ltibia 18.3603
lfoot 0.193586 -12.9067
ltoes 28.8105
189
root -10.3891 16.2561 28.7236 -171.61 -2.81385 -182.821
lowerback -6.95059 -2.12955 -5.92037
upperback 2.13251 -2.29185 -0.895585
thorax 6.34312 -1.36091 2.09439
lowerneck 0.17753 -2.17854 -5.21337
upperneck -6.73407 -2.20127 9.37549
head -2.03078 -1.05152 4.07314
rclavicle -2.48481e-015 1.03368e-014
rhumerus -36.1386 -19.3232 -77.0135
rradius 28.6369
rwrist 29.6097
rhand 1.20847 -5.27459
rfingers 7.12502
rthumb 26.7474 -33.4039
lclavicle -2.48481e-015 1.03368e-014
lhumerus -25.836 12.0238 80.9993
lradius 21.1103
lwrist -29.0712
lhand -6.83427 10.7637
lfingers 7.12502
lthumb 19.0302 39.8527
rfemur -34.3914 -4.75832 17.9794
rtibia 67.2023
rfoot -11.5479 1.05118
rtoes 11.9186
lfemur -15.6635 2.02133 -25.5632
ltibia 19.126
lfoot -0.334234 -13.14
ltoes 30.5935
190
root -10.397 16.2275 28.5463 -171.578 -3.36865 -182.842
lowerback -6.73413 -2.34502 -6.06791
upperback 2.18383 -2.58646 -0.692117
thorax 6.31644 -1.51421 2.35801
lowerneck 0.140749 -2.15301 -5.2706
upperneck -6.84321 -2.14949 9.43066
head -2.06389 -1.02253 4.10544
rclavicle 2.78299e-015 -7.15625e-015
rhumerus -36.4255 -19.3602 -76.4335
rradius 28.4625
rwrist 29.8939
rhand 1.3928 -5.40547
rfingers 7.12502
rthumb 26.9237 -33.5076
lclavicle 2.78299e-015 -7.15625e-015
lhumerus -25.3914 10.6087 82.0078
lradius 21.6994
lwrist -27.9101
lhand -6.95753 10.6002
lfingers 7.12502
lthumb 18.9117 39.7008
rfemur -35.8248 -4.55269 17.8966
rtibia 65.0822
rfoot -12.9355 0.12667
rtoes 12.547
lfemur -15.2021 1.3408 -25.4949
ltibia 19.6682
lfoot -1.16719 -13.4551
ltoes 31.2286
191
root -10.4014 16.2154 28.3641 -171.526 -3.97018 -182.78
lowerback -6.57666 -2.53541 -6.0978
upperback 2.26141 -2.8528 -0.512595
thorax 6.34445 -1.65083 2.53228
lowerneck 0.112129 -2.22683 -5.162
upperneck -7.02806 -2.22933 9.35884
head -2.11426 -1.06093 4.06253
rclavicle -4.17448e-015 -6.55989e-015
rhumerus -36.8361 -19.667 -75.8419
rradius 28.305
rwrist 30.3494
rhand 1.51175 -5.49063
rfingers 7.12502
rthumb 27.0376 -33.5752
lclavicle -4.17448e-015 -6.55989e-015
lhumerus -24.88 8.99026 83.0142
lradius 22.3594
lwrist -26.5415
lhand -6.93866 10.7941
lfingers 7.12502
lthumb 18.9298 39.893
rfemur -37.0273 -4.37477 17.8493
rtibia 62.5035
rfoot -13.8419 -0.784054
rtoes 12.7533
lfemur -14.5733 0.94379 -25.344
ltibia 19.764
lfoot -1.84317 -14.1346
ltoes 31.279
192
root -10.3957 16.2123 28.181 -171.489 -4.44301 -182.475
lowerback -6.40239 -2.63309 -5.88801
upperback 2.3418 -3.01686 -0.334554
thorax 6.34326 -1.72694 2.58592
lowerneck 0.0417083 -2.33159 -5.08713
upperneck -7.25797 -2.3286 9.43831
head -2.16936 -1.10657 4.08077
rclavicle -1.60022e-014 2.5842e-015
rhumerus -37.3213 -20.2733 -75.2317
rradius 28.0133
rwrist 30.8595
rhand 1.34542 -5.45913
rfingers 7.12502
rthumb 26.8784 -33.5683
lclavicle -1.60022e-014 2.5842e-015
lhumerus -24.3458 7.35221 83.8311
lradius 22.9154
lwrist -25.5726
lhand -6.86249 11.0653
lfingers 7.12502
lthumb 19.0031 40.157
rfemur -38.0019 -3.88581 18.0279
rtibia 59.4473
rfoot -14.3844 -1.734
rtoes 12.2837
lfemur -13.7743 0.933653 -24.8977
ltibia 19.4152
lfoot -2.15705 -14.8231
ltoes 31.1233
193
root -10.4017 16.2183 27.997 -171.161 -5.1291 -183.015
lowerback -6.36583 -2.8416 -6.27623
upperback 2.28238 -3.26569 -0.436074
thorax 6.30118 -1.86227 2.66662
lowerneck 0.0237406 -2.4289 -5.02957
upperneck -7.36808 -2.43208 9.5493
head -2.1937 -1.1575 4.1122
rclavicle -5.36719e-015 -8.15017e-015
rhumerus -37.9835 -21.2575 -74.4065
rradius 27.6363
rwrist 31.4902
rhand 1.20535 -5.54468
rfingers 7.12502
rthumb 26.7444 -33.6744
lclavicle -5.36719e-015 -8.15017e-015
lhumerus -23.9053 6.01634 84.4554
lradius 23.2646
lwrist -24.986
lhand -6.70494 11.0075
lfingers 7.12502
lthumb 19.1546 40.0843
rfemur -38.9867 -4.07828 17.1787
rtibia 56.0638
rfoot -14.4758 -1.90465
rtoes 12.7574
lfemur -12.9433 0.724195 -25.4174
ltibia 18.6614
lfoot -1.98591 -15.4479
ltoes 31.1826
194
root -10.4032 16.2322 27.8043 -170.899 -5.73235 -183.121
lowerback -6.35819 -2.99568 -6.272
upperback 2.19589 -3.47449 -0.426041
thorax 6.22585 -1.96066 2.65087
lowerneck -0.00221232 -2.48168 -4.96596
upperneck -7.26423 -2.50279 9.63102
head -2.14833 -1.19439 4.12631
rclavicle -2.43511e-015 -2.00773e-014
rhumerus -38.7601 -22.3969 -73.4251
rradius 27.1196
rwrist 32.282
rhand 1.25121 -5.74917
rfingers 7.12502
rthumb 26.7883 -33.8722
lclavicle -2.43511e-015 -2.00773e-014
lhumerus -23.6328 4.87882 84.988
lradius 23.6354
lwrist -24.4616
lhand -6.52089 10.9767
lfingers 7.12502
lthumb 19.3316 40.0358
rfemur -39.6592 -4.07409 16.809
rtibia 52.3178
rfoot -14.2672 -1.98416
rtoes 12.6061
lfemur -11.888 0.474229 -25.407
ltibia 17.5478
lfoot -1.72016 -15.8238
ltoes 31.5612
195
root -10.401 16.2395 27.6112 -170.655 -5.99678 -183.092
lowerback -6.37617 -3.04611 -6.19081
upperback 2.13074 -3.54946 -0.372013
thorax 6.17242 -1.99157 2.65402
lowerneck -0.0803217 -2.49771 -4.95482
upperneck -7.15238 -2.52392 9.7125
head -2.09445 -1.20358 4.14887
rclavicle 3.75703e-014 1.96797e-014
rhumerus -39.4653 -23.5281 -72.3808
rradius 26.4099
rwrist 33.2031
rhand 1.16009 -5.7754
rfingers 7.12502
rthumb 26.7011 -33.9117
lclavicle 3.75703e-014 1.96797e-014
lhumerus -23.408 3.88325 85.4864
lradius 24.0376
lwrist -24.0817
lhand -6.37857 11.0543
lfingers 7.12502
lthumb 19.4684 40.0996
rfemur -40.2288 -3.89838 16.6418
rtibia 48.4147
rfoot -13.6823 -1.94237
rtoes 10.1704
lfemur -10.6325 0.986614 -25.2967
ltibia 15.9625
lfoot -1.15998 -16.482
ltoes 31.649
196
root -10.3903 16.2449 27.4065 -170.556 -6.55381 -183.149
lowerback -6.37228 -3.20873 -6.30932
upperback 2.17691 -3.75942 -0.265768
thorax 6.25617 -2.10398 2.80209
lowerneck -0.195786 -2.5425 -4.98955
upperneck -7.13664 -2.57812 9.74596
head -2.06278 -1.22609 4.16491
rclavicle 7.59357e-014 3.97569e-015
rhumerus -40.0457 -24.5698 -71.3067
rradius 25.5906
rwrist 34.2128
rhand 0.969538 -5.7406
rfingers 7.12502
rthumb 26.5187 -33.9046
lclavicle 7.59357e-014 3.97569e-015
lhumerus -23.137 3.21103 85.9495
lradius 24.2812
lwrist -23.8743
lhand -6.31029 10.9787
lfingers 7.12502
lthumb 19.534 40.0174
rfemur -40.3526 -4.04248 16.4962
rtibia 44.4275
rfoot -13.3244 -1.45094
rtoes 7.97403
lfemur -8.96293 0.765097 -25.1423
ltibia 14.1082
lfoot -0.631413 -16.6908
ltoes 31.9702
197
root -10.3815 16.254 27.1974 -170.54 -7.07129 -183.152
lowerback -6.34498 -3.34711 -6.32668
upperback 2.24838 -3.94727 -0.145799
thorax 6.34615 -2.20265 2.91132
lowerneck -0.245278 -2.60322 -5.07688
upperneck -7.25258 -2.64721 9.75536
head -2.0854 -1.25619 4.18751
rclavicle 1.38652e-014 0
rhumerus -40.6129 -25.657 -70.1647
rradius 24.7366
rwrist 35.3955
rhand 0.933536 -5.69454
rfingers 7.12502
rthumb 26.4842 -33.8637
lclavicle 1.38652e-014 0
lhumerus -22.9127 2.74612 86.3896
lradius 24.4328
lwrist -23.7533
lhand -6.35068 10.8709
lfingers 7.12502
lthumb 19.4952 39.9136
rfemur -40.2739 -4.30591 16.4704
rtibia 40.5503
rfoot -13.2278 -0.415578
rtoes 5.98657
lfemur -6.93698 0.707525 -24.9241
ltibia 11.7208
lfoot 0.45774 -16.6423
ltoes 33.234
198
root -10.3736 16.2641 26.9869 -170.527 -7.57892 -183.174
lowerback -6.30776 -3.48331 -6.27413
upperback 2.29978 -4.13794 -0.0780228
thorax 6.40059 -2.29795 2.92777
lowerneck -0.24852 -2.64785 -5.10241
upperneck -7.39189 -2.69638 9.71592
head -2.127 -1.27847 4.18199
rclavicle 8.74653e-015 -9.93923e-016
rhumerus -41.2649 -26.841 -69.0096
rradius 23.9695
rwrist 36.7036
rhand 1.10972 -5.59867
rfingers 7.12502
rthumb 26.6529 -33.7423
lclavicle 8.74653e-015 -9.93923e-016
lhumerus -22.7864 2.36479 86.7442
lradius 24.6026
lwrist -23.6825
lhand -6.37762 10.7529
lfingers 7.12502
lthumb 19.4693 39.7981
rfemur -40.1685 -4.60711 16.4702
rtibia 36.9363
rfoot -13.0133 0.678181
rtoes 3.54124
lfemur -4.48272 -0.299725 -24.6021
ltibia 8.41231
lfoot 1.36624 -15.4795
ltoes 33.8762
199
root -10.3542 16.2723 26.7615 -170.846 -8.6186 -183.533
lowerback -5.9938 -3.80559 -6.643
upperback 2.47865 -4.56234 -0.0994277
thorax 6.48596 -2.53091 3.06417
lowerneck -0.204025 -2.66505 -5.01226
upperneck -7.49502 -2.71309 9.6463
head -2.16952 -1.2885 4.143
rclavicle 1.47101e-014 2.44505e-014
rhumerus -41.9387 -27.6163 -68.1521
rradius 23.4103
rwrist 37.6319
rhand 1.46256 -5.71389
rfingers 7.12502
rthumb 26.9905 -33.8057
lclavicle 1.47101e-014 2.44505e-014
lhumerus -22.7538 1.93539 87.0009
lradius 24.8296
lwrist -23.4134
lhand -6.29783 10.6623
lfingers 7.12502
lthumb 19.546 39.6997
rfemur -39.4297 -5.12395 16.1106
rtibia 33.6812
rfoot -13.0931 1.0847
rtoes 2.41247
lfemur -0.476083 -1.87867 -24.7175
ltibia 3.0821
lfoot 2.80103 -13.8067
ltoes 32.7808
200
root -10.3343 16.2795 26.5336 -170.973 -9.25917 -183.897
lowerback -5.89224 -4.02176 -7.02216
upperback 2.56664 -4.82926 -0.127534
thorax 6.58379 -2.68411 3.21038
lowerneck -0.0817618 -2.67867 -4.9182
upperneck -7.64557 -2.72414 9.57489
head -2.24284 -1.29814 4.10589
rclavicle -8.94531e-015 1.53064e-014
rhumerus -42.6102 -28.0076 -67.4478
rradius 22.9181
rwrist 38.3176
rhand 1.70783 -5.89145
rfingers 7.12502
rthumb 27.2251 -33.9468
lclavicle -8.94531e-015 1.53064e-014
lhumerus -22.7888 1.51328 87.2671
lradius 25.0285
lwrist -22.8704
lhand -6.16605 10.6667
lfingers 7.12502
lthumb 19.6727 39.6913
rfemur -38.9386 -5.7133 15.9195
rtibia 30.8629
rfoot -13.2927 1.40706
rtoes 1.89659
lfemur 2.22226 -3.08061 -24.9768
ltibia 3.02153e-014
lfoot 3.23234 -12.5224
ltoes 31.4287
201
root -10.3124 16.285 26.3029 -170.862 -9.69171 -183.679
lowerback -6.14418 -4.15335 -6.79285
upperback 2.5456 -5.00615 0.00777529
thorax 6.71756 -2.7641 3.18456
lowerneck -0.083099 -2.73826 -4.92714
upperneck -7.67052 -2.80363 9.56973
head -2.24422 -1.33754 4.10696
rclavicle 2.27608e-014 8.94531e-015
rhumerus -43.3038 -28.4789 -66.6387
rradius 22.418
rwrist 39.1835
rhand 1.81041 -5.85267
rfingers 7.12502
rthumb 27.3233 -33.8926
lclavicle 2.27608e-014 8.94531e-015
lhumerus -22.795 1.25507 87.5462
lradius 25.1335
lwrist -22.3357
lhand -5.92677 10.7478
lfingers 7.12502
lthumb 19.9027 39.7486
rfemur -38.8344 -6.45453 16.6251
rtibia 28.6186
rfoot -16.1624 2.4074
rtoes 27.0107
lfemur 2.98478 -4.00739 -24.5384
ltibia -2.54444e-014
lfoot 2.37693 -11.9012
ltoes 30.8085
